<svg width="53" height="42" viewBox="0 0 53 42" fill="none" xmlns="http://www.w3.org/2000/svg">
<path d="M27.1182 29.3131L30.9414 41.9999H12.5465C9.23024 41.9999 6.04977 40.6825 3.70479 38.3375C1.35982 35.9926 0.0424194 32.8121 0.0424194 29.4958" fill="#04AA77"/>
<path d="M28.5948 34.1644H12.4987C11.8994 34.1644 11.306 34.0463 10.7523 33.817C10.1986 33.5877 9.69552 33.2515 9.27175 32.8277C8.84799 32.404 8.51184 31.9009 8.2825 31.3472C8.05316 30.7936 7.93512 30.2001 7.93512 29.6008C7.93491 29.0015 8.0528 28.4079 8.28207 27.8542C8.51133 27.3004 8.84747 26.7972 9.27128 26.3734C9.69509 25.9496 10.1983 25.6135 10.752 25.3842C11.3058 25.1549 11.8993 25.037 12.4987 25.0373H25.8305L28.5948 34.1644Z" fill="white"/>
<path d="M52.8997 0.0467529H30.9387V41.9982H52.8997V0.0467529Z" fill="#04AA77"/>
<path d="M35.8417 25.0567H25.9483L18.4103 0.0484924H35.8417C39.158 0.0484924 42.3385 1.36589 44.6834 3.71087C47.0284 6.05585 48.3458 9.23632 48.3458 12.5526C48.3458 15.8689 47.0284 19.0494 44.6834 21.3944C42.3385 23.7394 39.158 25.0567 35.8417 25.0567Z" fill="white"/>
<path d="M20.7429 8.06659H35.7075C36.9178 8.06659 38.0785 8.54739 38.9344 9.40322C39.7902 10.2591 40.271 11.4198 40.271 12.6302C40.271 13.8405 39.7902 15.0012 38.9344 15.8571C38.0785 16.7129 36.9178 17.1937 35.7075 17.1937H23.5541L20.7429 8.06659Z" fill="#04AA77"/>
<path d="M12.5041 0H18.3658L25.8957 25.0131H12.5041C9.18795 25.0127 6.00773 23.6951 3.66285 21.3503C1.31796 19.0054 0.000429057 15.8251 4.17997e-07 12.509C-0.000424211 10.8666 0.32268 9.24015 0.950861 7.72261C1.57904 6.20508 2.5 4.82615 3.66113 3.66456C4.82227 2.50297 6.20084 1.58149 7.71813 0.952716C9.23542 0.323947 10.8617 0.000212253 12.5041 0Z" fill="#04AA77"/>
<path d="M23.5383 17.1937H12.2984C11.088 17.1937 9.92727 16.7129 9.07144 15.8571C8.2156 15.0012 7.7348 13.8405 7.7348 12.6302C7.7348 11.4198 8.2156 10.2591 9.07144 9.40322C9.92727 8.54739 11.088 8.06659 12.2984 8.06659H20.7336L22.136 12.6302L23.5383 17.1937Z" fill="white"/>
<path d="M37.3603 42H30.9409L23.4643 17.1938H37.3667C40.656 17.1938 43.8106 18.5005 46.1365 20.8264C48.4624 23.1522 49.769 26.3068 49.769 29.5961C49.7692 31.2255 49.4484 32.8389 48.8248 34.3442C48.2012 35.8496 47.2871 37.2173 46.1348 38.3692C44.9824 39.5211 43.6144 40.4346 42.1088 41.0576C40.6032 41.6806 38.9897 42.0008 37.3603 42Z" fill="white"/>
<path d="M25.7497 25.0324H37.3178C38.5282 25.0324 39.6889 25.5132 40.5448 26.3691C41.4006 27.2249 41.8814 28.3857 41.8814 29.596C41.8814 30.8063 41.4006 31.9671 40.5448 32.8229C39.6889 33.6788 38.5282 34.1596 37.3178 34.1596H28.5609L25.7497 25.0324Z" fill="#04AA77"/>
</svg>
