<svg width="127" height="74" viewBox="0 0 127 74" fill="none" xmlns="http://www.w3.org/2000/svg">
<path opacity="0.04" fill-rule="evenodd" clip-rule="evenodd" d="M93.5297 3.85103C89.9629 4.31021 84.8459 5.13993 82.1576 5.69544C76.223 6.9214 75.8082 6.92269 77.8581 5.70957C79.4283 4.7803 79.4071 4.76681 76.8948 5.09691C74.9951 5.34608 74.6605 5.27672 75.6104 4.83039C77.5331 3.92617 75.8236 4.00259 68.8672 5.13094C65.4212 5.6903 61.6617 5.93434 60.2283 5.69223C58.8328 5.45654 52.475 5.19645 46.0999 5.11424C39.7254 5.03204 33.6425 4.75525 32.5828 4.49837C31.0621 4.13039 30.8592 4.18755 31.6195 4.76938C32.3606 5.33709 31.6202 5.41608 28.4085 5.11168C23.68 4.66406 8.30055 6.34727 7.96532 7.34911C7.84715 7.70168 6.3277 7.98938 4.58798 7.98938C1.58568 7.98938 1.46624 8.05489 2.22724 9.27379C2.66844 9.98021 3.68247 10.5582 4.48073 10.5582C6.72587 10.5582 6.19284 11.736 3.84431 11.9627C2.40192 12.1014 1.75458 12.497 1.7488 13.242C1.74431 13.8353 1.5266 14.5347 1.26523 14.7967C1.00321 15.0581 1.23055 15.9456 1.77 16.7683C2.65174 18.1143 2.64981 18.2646 1.75137 18.2646C0.481097 18.2646 -0.61193 20.9696 0.393116 21.6265C0.789997 21.886 1.84835 22.1024 2.7455 22.1082C3.64202 22.1133 5.5089 22.6958 6.89477 23.4022C9.13669 24.5453 9.24009 24.695 7.83302 24.7611C6.66679 24.8164 6.55954 24.9153 7.4233 25.1381C8.07449 25.3064 8.4489 25.8214 8.26587 26.2973C8.01734 26.9459 9.13541 27.249 12.875 27.5489C21.6487 28.2515 25.5482 28.7659 24.2342 29.0491C23.5278 29.2007 19.9507 30.3046 16.2857 31.501C12.62 32.6981 8.3577 33.6775 6.81321 33.6775C4.74532 33.6775 4.00486 33.9311 4.00486 34.6408C4.00486 35.1706 4.42935 35.6041 4.94825 35.6041C5.53844 35.6041 5.74715 35.9785 5.50697 36.6059C5.2488 37.2789 5.58146 37.7272 6.52229 37.9731L7.92165 38.3392L6.59101 39.5786C5.85954 40.2607 5.43825 41.1052 5.65532 41.4564C5.87174 41.8071 5.44211 42.6208 4.70036 43.2642C3.60541 44.2134 3.40568 44.9654 3.64073 47.244C3.80064 48.7891 3.9477 50.3798 3.96825 50.7786C4.01449 51.6938 6.65587 52.781 10.5829 53.5016C12.7542 53.8997 15.8939 53.7244 21.5222 52.8909C28.264 51.8922 29.8817 51.8415 32.6053 52.5428L35.7938 53.3642L33.225 54.2343C30.8084 55.0538 30.7513 55.1296 32.2617 55.5123C33.7677 55.8944 33.7073 55.9715 31.2984 56.7569C28.6153 57.6316 26.9283 58.7233 28.2602 58.7233C28.6725 58.7233 28.8439 59.1568 28.641 59.6866C28.3796 60.3667 28.7161 60.6686 29.7848 60.7142L31.2984 60.7777L29.6929 61.2825C28.1054 61.7821 28.1105 61.7931 30.1746 62.2625C31.3228 62.5232 32.2617 63.1102 32.2617 63.5662C32.2617 64.0221 33.1287 64.7793 34.1883 65.2481C35.248 65.7175 36.115 66.5755 36.115 67.1548C36.115 67.7347 36.8727 68.7051 37.7994 69.3126C38.7261 69.9195 39.2945 70.1096 39.0633 69.7352C38.7717 69.2638 42.5447 69.0763 51.3467 69.1251C59.5515 69.1707 67.2348 68.8194 73.0416 68.1335C77.9865 67.5491 83.7663 66.9127 85.8856 66.7187C91.6776 66.1889 100.853 64.6136 104.831 63.4666C106.773 62.906 110.241 62.0442 112.537 61.5509C114.833 61.0571 117.213 60.3635 117.826 60.0097C118.439 59.6552 119.451 59.361 120.074 59.3559C121.044 59.3475 121.068 59.2538 120.243 58.7053C119.439 58.171 119.632 57.7716 121.406 56.292C123.749 54.3377 123.562 53.5857 120.733 53.5857C119.139 53.5857 118.998 53.4553 119.761 52.6918C120.253 52.1998 121.213 51.6553 121.895 51.4819C122.946 51.2134 122.909 51.1543 121.65 51.0914C119.692 50.9931 120.507 49.7325 122.529 49.7325C124.888 49.7325 124.413 48.6453 121.688 47.8072C117.449 46.5029 117.278 46.2858 120.193 45.9172C121.756 45.72 123.155 45.1876 123.304 44.7355C123.453 44.2828 123.331 43.9559 123.033 44.0086C122.735 44.0612 121.191 44.0664 119.601 44.0188C117.461 43.9553 116.961 43.769 117.675 43.3008C118.506 42.755 118.511 42.5867 117.717 42.0755C116.576 41.3415 108.154 40.1926 101.298 39.8349C95.3061 39.5228 93.8502 39.0842 94.3633 37.7464C94.6735 36.9392 95.5713 36.8692 99.9421 37.3123C107.921 38.1208 119.369 37.4292 118.599 36.1846C118.402 35.8654 118.619 35.5752 119.082 35.5398C119.544 35.5045 119.2 35.2444 118.317 34.9619L116.711 34.4475L118.515 34.3839C119.507 34.3486 120.152 34.0493 119.948 33.7192C119.744 33.3885 120.521 33.0275 121.676 32.9164L123.776 32.7142L121.849 31.5595L119.922 30.4048L122.973 30.6777C124.651 30.828 126.023 30.6976 126.023 30.3875C126.023 30.0779 125.228 29.8197 124.257 29.8146C123.286 29.8088 122.058 29.5243 121.528 29.182C120.709 28.6529 120.737 28.5578 121.715 28.5495C122.348 28.5443 123.46 27.9863 124.187 27.3094L125.508 26.0783L123.679 25.0591L121.849 24.0406L123.776 24.4156C125.247 24.702 125.475 24.6288 124.739 24.1061C123.914 23.5204 123.944 23.4202 124.953 23.4119C126.572 23.3984 125.935 21.8455 124.207 21.5912C122.546 21.3472 122.325 20.1957 123.936 20.1816C124.554 20.1758 125.485 19.9022 126.005 19.5734C126.797 19.0731 126.745 18.9023 125.684 18.5228C124.987 18.2736 123.939 17.659 123.354 17.1581C122.094 16.0792 113.353 13.7095 109.534 13.4115C106.559 13.179 102.395 12.1367 101.099 11.2993C100.462 10.8876 100.651 10.4985 101.88 9.69379C102.772 9.10938 104.08 8.63159 104.788 8.63159C105.631 8.63159 105.955 8.31947 105.727 7.72608C105.517 7.17764 105.918 6.65039 106.746 6.38709C107.498 6.14883 107.998 5.61709 107.859 5.20544C107.719 4.79379 108.642 4.12654 109.91 3.72195C111.983 3.06048 111.601 2.98791 106.115 3.0014C102.759 3.00975 97.0959 3.39186 93.5297 3.85103ZM4.17761 20.6125C3.74284 20.7885 2.87587 20.7994 2.25101 20.6363C1.62614 20.4731 1.98192 20.3293 3.04156 20.3164C4.10119 20.3036 4.61238 20.4365 4.17761 20.6125Z" fill="black"/>
<path fill-rule="evenodd" clip-rule="evenodd" d="M9.56801 0.116073C8.64017 0.336278 7.28684 1.13394 6.628 1.84905C6.29306 2.21272 5.80639 2.95918 5.54679 3.50753L5.0746 4.5048V19.0607V33.6166L5.54679 34.6139C6.20369 36.0014 7.04962 36.8663 8.40713 37.5378L9.53414 38.0954L16.2188 38.1399L22.9032 38.1844V41.7602V45.336H22.0627C20.7677 45.336 20.0885 45.6045 19.2429 46.4506C18.3973 47.2968 18.129 47.9764 18.129 49.2722V50.1134H11.9308H5.73239L5.36627 50.4799L5 50.8462V62.0567V73.2671L5.36627 73.6335L5.73239 74H42H78.2676L78.6337 73.6335L79 73.2671V62.0567V50.8462L78.6337 50.4799C78.3331 50.1789 78.1198 50.1134 77.4402 50.1134H76.6129V44.5082V38.9029L76.2466 38.5365C75.946 38.2356 75.7327 38.17 75.0531 38.17H74.2258V31.9677V25.7653L73.8595 25.3989C73.6238 25.1629 73.3239 25.0324 73.0173 25.0324C72.6144 25.0324 72.3045 25.2657 70.9965 26.5537L69.4516 28.0749L67.9067 26.5537C65.8469 24.5254 65.895 24.5254 63.8352 26.5537L62.2903 28.0749L60.7454 26.5537C59.4374 25.2657 59.1276 25.0324 58.7246 25.0324C58.418 25.0324 58.1181 25.1629 57.8824 25.3989L57.5161 25.7653V31.9677V38.17H56.6888C56.0093 38.17 55.7959 38.2356 55.4953 38.5365L55.129 38.9029V44.5082V50.1134H48.5645H42V49.2722C42 48.0702 41.7371 47.3486 41.0003 46.5286C40.2434 45.6863 39.3902 45.336 38.0944 45.336H37.2258V41.7602V38.1844L43.9103 38.1399L50.5949 38.0954L51.7219 37.5378C53.0794 36.8663 53.9253 36.0014 54.5822 34.6139L55.0544 33.6166V19.0607V4.5048L54.5822 3.50753C53.9252 2.11971 53.0794 1.25517 51.7216 0.583654L50.5943 0.0260504L30.3707 0.00246235C18.484 -0.011571 9.90847 0.0354557 9.56801 0.116073ZM50.2629 2.52161C51.0825 2.76391 52.3184 4.00064 52.5605 4.8207C52.6961 5.28007 52.7419 8.36189 52.7419 17.0253V28.6154H30.0645H7.3871V17.0253C7.3871 8.36189 7.4329 5.28007 7.56852 4.8207C7.79305 4.06021 9.04195 2.76615 9.77419 2.53519C10.561 2.28707 49.4254 2.27393 50.2629 2.52161ZM67.0645 14.8806V19.0607H68.2581H69.4516V14.8806V10.7004H68.2581H67.0645V14.8806ZM62.2903 17.8664V22.6437H63.4839H64.6774V17.8664V13.0891H63.4839H62.2903V17.8664ZM67.4447 29.5111C69.3585 31.3958 69.4938 31.4183 70.8819 30.0846L71.8387 29.1652V33.6676V38.17H65.871H59.9032V33.6676V29.1652L60.86 30.0846C62.2493 31.4195 62.3874 31.3965 64.2901 29.5131C65.1186 28.6929 65.8261 28.021 65.8625 28.0202C65.8989 28.0191 66.6108 28.69 67.4447 29.5111ZM52.7419 31.8451C52.7419 32.3078 52.6603 32.9627 52.5605 33.3007C52.3184 34.1208 51.0825 35.3575 50.2629 35.5998C49.3737 35.8627 10.7553 35.8627 9.8661 35.5998C9.04658 35.3575 7.81066 34.1208 7.56852 33.3007C7.46871 32.9627 7.3871 32.3078 7.3871 31.8451V31.004H30.0645H52.7419V31.8451ZM62.2903 34.587V35.7814H65.871H69.4516V34.587V33.3927H65.871H62.2903V34.587ZM34.8387 41.753V45.336H30.0645H25.2903V41.753V38.17H30.0645H34.8387V41.753ZM74.2258 45.336V50.1134H65.871H57.5161V45.336V40.5587H65.871H74.2258V45.336ZM69.4516 44.1417V45.336H70.6452H71.8387V44.1417V42.9474H70.6452H69.4516V44.1417ZM39.2466 48.0912C39.5474 48.392 39.6129 48.6055 39.6129 49.2855V50.1134H30.0645H20.5161V49.2855C20.5161 48.6055 20.5816 48.392 20.8824 48.0912L21.2485 47.7247H30.0645H38.8805L39.2466 48.0912ZM76.6129 62.0567V71.6113H42H7.3871V62.0567V52.502H42H76.6129V62.0567ZM10.1405 55.2572L9.77419 55.6236V62.0567V68.4898L10.1405 68.8562L10.5066 69.2227H27.6774H44.8483L45.2144 68.8562L45.5806 68.4898V62.0567V55.6236L45.2144 55.2572L44.8483 54.8907H27.6774H10.5066L10.1405 55.2572ZM48.334 55.2572C47.9707 55.6206 47.9677 55.6467 47.9677 58.4737C47.9677 62.3111 47.7135 62.0567 51.5484 62.0567C54.3735 62.0567 54.3996 62.0537 54.7628 61.6902C55.126 61.3268 55.129 61.3007 55.129 58.4737C55.129 54.6363 55.3833 54.8907 51.5484 54.8907C48.7233 54.8907 48.6971 54.8937 48.334 55.2572ZM57.8824 55.2572C57.5191 55.6206 57.5161 55.6467 57.5161 58.4737C57.5161 62.3111 57.2619 62.0567 61.0968 62.0567C63.9219 62.0567 63.948 62.0537 64.3111 61.6902C64.6744 61.3268 64.6774 61.3007 64.6774 58.4737C64.6774 54.6363 64.9316 54.8907 61.0968 54.8907C58.2716 54.8907 58.2455 54.8937 57.8824 55.2572ZM67.4308 55.2572C67.0675 55.6206 67.0645 55.6467 67.0645 58.4737C67.0645 62.3111 66.8103 62.0567 70.6452 62.0567C73.4703 62.0567 73.4964 62.0537 73.8595 61.6902C74.2228 61.3268 74.2258 61.3007 74.2258 58.4737C74.2258 54.6363 74.48 54.8907 70.6452 54.8907C67.82 54.8907 67.7939 54.8937 67.4308 55.2572ZM18.4987 59.5123C19.1134 60.7404 19.7472 61.8153 19.9073 61.901C20.0981 62.0031 22.7687 62.0567 27.6774 62.0567C32.5862 62.0567 35.2567 62.0031 35.4476 61.901C35.6076 61.8153 36.2414 60.7404 36.8561 59.5123L37.9737 57.2793H40.5836H43.1935V62.0567V66.834H27.6774H12.1613V62.0567V57.2793H14.7713H17.3811L18.4987 59.5123ZM34.6895 58.4737L34.0895 59.668H27.6774H21.2654L20.6653 58.4737L20.0653 57.2793H27.6774H35.2896L34.6895 58.4737ZM52.7419 58.4737V59.668H51.5484H50.3548V58.4737V57.2793H51.5484H52.7419V58.4737ZM62.2903 58.4737V59.668H61.0968H59.9032V58.4737V57.2793H61.0968H62.2903V58.4737ZM71.8387 58.4737V59.668H70.6452H69.4516V58.4737V57.2793H70.6452H71.8387V58.4737ZM47.9677 68.0283V69.2227H61.0968H74.2258V68.0283V66.834H61.0968H47.9677V68.0283Z" fill="#04AA77"/>
</svg>
