<svg width="300" height="51" viewBox="0 0 300 51" fill="none" xmlns="http://www.w3.org/2000/svg">
<path d="M264.344 20.7481C264.344 21.8957 266.721 21.4039 266.885 22.0596C267.541 22.9613 265.984 23.1252 266.393 24.0268C277.295 24.7645 288.443 25.4203 299.344 27.3055C297.295 27.8793 295.328 28.617 293.361 28.2072C290.082 27.4695 286.639 27.3875 283.361 27.2236C276.393 26.8137 269.508 25.6662 262.459 25.8301H259.918C262.049 26.3219 263.852 26.158 264.59 27.6334C258.607 27.9613 253.033 26.9777 247.213 26.7318C247.049 27.2236 246.803 27.7154 246.557 28.2072C264.016 28.7809 281.393 29.5186 299.262 31.9777C295.82 33.2891 292.951 32.7973 290.41 32.6334C284.836 32.2236 279.344 31.5678 273.77 31.076C273.033 30.9941 271.885 30.994 271.393 31.24C269.59 32.5514 267.869 31.7318 265.656 31.5678C266.803 30.7481 267.705 31.9777 268.852 30.9121C264.262 30.0924 260.082 31.4039 255.82 30.9121C251.557 30.4203 247.213 30.4203 242.213 30.2563C243.852 31.5678 245.984 31.3219 247.295 31.4039C251.311 31.4039 255.41 32.0596 259.426 31.9777C263.77 31.8957 267.951 32.3875 272.131 32.7154C274.754 32.9613 277.623 32.6334 280.246 32.3875C281.148 32.3055 280.656 32.6334 280.738 32.8793C281.148 33.617 282.541 33.535 283.689 33.535C287.869 33.4531 291.967 34.0268 295.82 34.7645C296.475 34.8465 297.049 34.7645 297.213 35.3383C297.213 35.9121 296.557 35.8301 295.984 35.994C292.787 36.9777 289.918 35.8301 286.885 35.8301C285.246 35.8301 283.361 34.6006 281.967 36.24C281.721 36.5678 280.82 36.3219 280.164 36.158C276.475 35.5022 272.705 35.7481 268.852 34.9285C266.967 34.5186 264.262 35.0104 261.967 35.3383C258.689 35.7481 255.41 34.7645 252.049 34.6006C249.262 34.4367 246.229 34.1908 243.443 34.0268C237.623 33.7809 231.803 33.0432 225.164 33.699C229.18 34.6006 232.869 34.6826 236.475 34.6826C244.426 34.6826 252.213 36.5678 260.164 35.994C266.148 38.617 273.197 37.2236 279.672 38.3711C283.689 39.0268 287.951 39.0268 292.131 39.3547C292.541 39.3547 292.787 39.6006 293.033 40.0924C276.639 38.3711 260.082 38.9449 243.197 37.6334C247.213 39.3547 252.049 37.3875 255.738 39.8465C249.18 41.4039 242.787 39.1088 236.475 39.7645C238.77 40.9121 242.295 40.6662 244.098 42.4695C244.508 42.8793 244.262 43.3711 243.115 43.535C245 44.3547 245.902 41.8137 247.787 43.2072C247.951 42.7154 247.951 42.3875 248.033 41.9777C248.689 41.7318 249.672 42.6334 249.262 43.2072C249.098 43.2891 249.262 43.4531 249.262 43.617C264.59 43.9449 279.836 45.0104 295.328 46.5678C293.934 47.4695 293.033 47.5514 291.885 47.4695C286.066 47.0596 280.328 46.7318 274.508 46.3219C271.967 46.158 269.344 45.994 266.803 45.994C260.574 45.8301 254.508 45.4203 248.443 45.1744C241.066 44.8465 233.77 45.0924 226.393 45.0924C225.41 45.0924 224.016 44.7645 223.197 45.9121C235.328 46.158 247.541 46.4039 259.59 46.8137C271.721 47.3055 284.098 47.8793 295.82 50.2563C292.295 51.076 288.607 50.994 285.164 50.6662C280.82 50.2563 276.557 49.7645 272.213 49.6826C262.869 49.4367 253.443 48.9449 244.098 48.699C229.672 48.3711 215.082 48.4531 200.574 48.3711C191.721 48.2891 182.787 48.2072 173.934 48.3711C159.344 48.699 144.672 48.535 130.082 48.7809C119.344 49.0268 108.525 48.8629 97.7869 49.1908C88.6885 49.4367 79.4262 49.6826 70.2459 50.0104C59.5082 50.5022 48.8525 50.1744 38.0328 50.3383C34.8361 50.4203 31.8033 50.5022 28.3607 50.1744C29.0984 49.1908 30.2459 49.1088 31.5574 49.1088C38.4426 49.2727 45.1639 48.7809 51.9672 48.3711C55.1639 48.2072 58.4426 48.0432 61.7213 48.535C63.7705 48.8629 66.0656 48.2891 68.2787 48.2072C74.2623 47.8793 80.3279 47.6334 86.3115 47.4695C96.0656 47.0596 105.738 46.4859 115.492 46.8137C121.803 46.9777 128.033 46.3219 134.262 46.7318C136.148 46.8957 137.787 46.3219 139.59 45.9121H125.164C117.295 45.9121 109.59 45.8301 101.721 45.9121C95.1639 45.994 88.5246 46.158 82.0492 46.5678C79.918 46.7318 77.6229 46.6498 75.3279 46.6498C67.0492 46.8957 58.8525 47.1416 50.5738 47.0596C46.1475 47.0596 41.8033 46.9777 37.541 47.5514C35.6557 47.7973 34.2623 46.4859 32.2131 47.0596C32.377 47.3875 32.623 47.7973 32.7049 48.2891C31.1475 48.2891 29.4262 48.617 28.6885 48.2072C25.2459 46.4039 20.9836 46.9777 17.1311 46.3219C15.7377 46.076 14.0984 46.24 13.6066 45.0924C13.1967 44.0268 15.1639 43.8629 15.7377 42.9613C12.2951 41.8137 11.9672 38.8629 8.77049 37.0596C7.54098 37.2236 8.03279 39.3547 5.32787 38.1252C5.57377 40.0924 9.01639 41.3219 7.62295 43.3711C5.7377 43.617 5 42.7154 4.18033 41.9777C2.13115 38.699 0 35.0924 0 31.5678C0.163934 25.994 0.163934 20.2563 2.95082 14.8465C3.19672 14.4367 3.19672 14.0268 3.60656 13.699C4.34426 12.9613 4.59016 11.7318 6.55738 11.9777C8.36066 12.1416 8.60656 13.2072 8.68852 14.1088C8.85246 15.2563 9.91803 15.5842 11.3115 16.158C12.0492 15.0104 11.7213 13.7809 13.4426 13.1252C13.6066 13.0432 13.6885 12.7973 13.6885 12.7973C11.1475 10.9941 14.6721 10.9941 15.5738 10.0924C13.0328 8.617 12.2951 6.56782 12.541 4.35471C11.3115 4.1088 10 4.02684 8.85246 4.35471C7.45902 4.84651 7.04918 3.94487 6.47541 3.53503C6.96721 3.1252 7.13115 2.63339 8.27869 2.46946C14.5082 1.73176 20.7377 1.07602 27.0492 0.830116C43.4426 0.256346 59.7541 0.0924112 76.1475 0.010444C85.9016 -0.0715232 95.6557 0.338313 105.328 0.912083C108.279 1.07602 111.148 0.174378 114.098 0.502247C120.574 1.23995 127.049 0.748149 133.607 0.912083C139.59 0.994051 145.41 0.42028 151.393 0.830116C161.393 1.56782 171.393 1.07602 181.475 1.32192C189.18 1.56782 196.967 1.64979 204.59 2.14159C214.344 2.71536 224.098 3.20717 233.77 3.78094C242.869 4.27274 252.131 4.19077 261.066 5.42028C266.885 6.23995 272.869 6.32192 278.525 7.38749C281.803 7.96126 285.246 8.69897 288.689 8.94487C290.492 9.1088 289.426 9.76454 289.918 10.1744C286.639 9.51864 283.361 9.51864 280 9.02684C276.475 8.45307 273.033 8.20716 269.508 9.35471C267.131 10.1744 264.344 9.51864 261.885 9.27274C253.525 8.3711 245 7.96126 236.639 7.30553C226.721 6.56782 216.721 6.15798 206.803 5.58421C198.689 5.09241 190.41 5.17438 182.295 4.76454C172.951 4.27274 163.689 4.76454 154.262 4.35471C149.098 4.1088 144.18 4.1088 139.098 4.02684C135.656 3.94487 132.213 5.09241 128.607 4.27274C129.098 4.43667 129.59 4.84651 130.164 4.84651C138.77 4.84651 147.295 6.40389 156.066 6.23995C161.393 6.15798 166.803 6.40389 172.295 6.89569C174.918 7.14159 177.459 6.56782 180.246 6.81372C186.475 7.38749 192.951 7.22356 199.098 7.46946C209.262 7.8793 219.344 7.79733 229.508 8.3711C240.41 8.94487 251.475 10.0924 262.213 11.7318C267.295 12.4695 272.623 12.9613 277.951 13.1252C278.443 13.1252 278.852 13.2072 279.18 13.535C275.41 13.617 271.557 13.535 267.787 13.1252C267.295 14.0268 268.934 13.8629 269.016 14.6826C261.066 15.9941 252.951 13.535 244.918 14.6006C246.721 15.7481 249.098 15.4203 250.984 15.4203C256.967 15.5022 262.541 16.4859 268.361 16.9777C270.656 17.2236 273.197 16.9777 275.328 17.6334C276.557 18.0432 279.098 16.7318 279.344 18.699C282.623 18.1252 285.328 19.9285 288.443 19.6826C291.721 19.4367 294.754 20.1744 297.951 20.5842C298.607 20.6662 299.754 20.8301 299.836 21.4859C300 22.3055 298.934 22.4695 298.197 22.7154C295.41 23.535 292.705 22.3875 289.918 22.3875C289.18 22.3875 288.279 22.2236 287.541 22.2236C279.836 22.3055 272.131 21.158 264.344 20.7481C259.426 20.4203 254.426 20.0104 249.508 19.6826C249.508 19.8465 249.508 20.0104 249.344 20.1744C254.344 20.5842 259.262 21.3219 264.344 20.7481Z" fill="#04AA77"/>
</svg>
