<svg width="185" height="44" viewBox="0 0 185 44" fill="none" xmlns="http://www.w3.org/2000/svg">
<path d="M27.1183 31.3131L30.9415 43.9999H12.5466C9.2303 43.9999 6.04983 42.6825 3.70485 40.3375C1.35988 37.9926 0.0424805 34.8121 0.0424805 31.4958" fill="#04AA77"/>
<path d="M28.5947 36.1644H12.4986C11.8993 36.1644 11.3059 36.0463 10.7522 35.817C10.1985 35.5877 9.69546 35.2515 9.27169 34.8277C8.84793 34.404 8.51178 33.9009 8.28244 33.3472C8.0531 32.7936 7.93506 32.2001 7.93506 31.6008C7.93485 31.0015 8.05274 30.4079 8.28201 29.8542C8.51127 29.3004 8.84741 28.7972 9.27122 28.3734C9.69503 27.9496 10.1982 27.6135 10.752 27.3842C11.3057 27.1549 11.8993 27.037 12.4986 27.0373H25.8304L28.5947 36.1644Z" fill="white"/>
<path d="M52.8997 2.04674H30.9387V43.9982H52.8997V2.04674Z" fill="#04AA77"/>
<path d="M35.8418 27.0567H25.9484L18.4104 2.0485H35.8418C39.1581 2.0485 42.3386 3.36589 44.6836 5.71087C47.0285 8.05585 48.3459 11.2363 48.3459 14.5526C48.3459 17.8689 47.0285 21.0494 44.6836 23.3944C42.3386 25.7394 39.1581 27.0567 35.8418 27.0567Z" fill="white"/>
<path d="M20.7429 10.0666H35.7075C36.9178 10.0666 38.0785 10.5474 38.9344 11.4032C39.7902 12.2591 40.271 13.4198 40.271 14.6302C40.271 15.8405 39.7902 17.0013 38.9344 17.8571C38.0785 18.7129 36.9178 19.1937 35.7075 19.1937H23.5541L20.7429 10.0666Z" fill="#04AA77"/>
<path d="M12.5041 2H18.3658L25.8957 27.0131H12.5041C9.18795 27.0127 6.00773 25.6951 3.66285 23.3503C1.31796 21.0054 0.000429057 17.8251 4.17997e-07 14.509C-0.000424211 12.8666 0.32268 11.2401 0.950861 9.72261C1.57904 8.20508 2.5 6.82615 3.66113 5.66456C4.82227 4.50297 6.20084 3.58149 7.71813 2.95272C9.23542 2.32395 10.8617 2.00021 12.5041 2Z" fill="#04AA77"/>
<path d="M23.5384 19.1937H12.2984C11.0881 19.1937 9.92733 18.7129 9.0715 17.8571C8.21567 17.0013 7.73486 15.8405 7.73486 14.6302C7.73486 13.4198 8.21567 12.2591 9.0715 11.4032C9.92733 10.5474 11.0881 10.0666 12.2984 10.0666H20.7337L22.136 14.6302L23.5384 19.1937Z" fill="white"/>
<path d="M37.3603 44H30.941L23.4644 19.1938H37.3668C40.6561 19.1938 43.8107 20.5005 46.1365 22.8264C48.4624 25.1522 49.7691 28.3068 49.7691 31.5961C49.7693 33.2255 49.4485 34.8389 48.8249 36.3442C48.2013 37.8496 47.2872 39.2173 46.1348 40.3692C44.9825 41.5211 43.6144 42.4347 42.1088 43.0576C40.6033 43.6806 38.9897 44.0009 37.3603 44Z" fill="white"/>
<path d="M25.7498 27.0324H37.3179C38.5282 27.0324 39.689 27.5132 40.5448 28.3691C41.4006 29.2249 41.8815 30.3857 41.8815 31.596C41.8815 32.8063 41.4006 33.9671 40.5448 34.8229C39.689 35.6787 38.5282 36.1595 37.3179 36.1595H28.561L25.7498 27.0324Z" fill="#04AA77"/>
<path opacity="0.7" d="M65.06 41C64.9933 41 64.94 40.98 64.9 40.94C64.86 40.9 64.84 40.8467 64.84 40.78V38.33L62.4 34.33C62.3933 34.31 62.3833 34.29 62.37 34.27C62.3633 34.25 62.36 34.2267 62.36 34.2C62.36 34.1467 62.38 34.1 62.42 34.06C62.46 34.02 62.5067 34 62.56 34H62.76C62.8067 34 62.85 34.0133 62.89 34.04C62.93 34.06 62.9633 34.0967 62.99 34.15L65.16 37.68L67.33 34.15C67.3633 34.0967 67.3967 34.06 67.43 34.04C67.47 34.0133 67.5133 34 67.56 34H67.76C67.8133 34 67.86 34.02 67.9 34.06C67.94 34.1 67.96 34.1467 67.96 34.2C67.96 34.2267 67.9567 34.25 67.95 34.27C67.9433 34.29 67.9333 34.31 67.92 34.33L65.48 38.33V40.78C65.48 40.8467 65.46 40.9 65.42 40.94C65.38 40.98 65.3233 41 65.25 41H65.06ZM71.4783 41.1C70.9983 41.1 70.5949 41 70.2683 40.8C69.9483 40.6 69.7016 40.3267 69.5283 39.98C69.3616 39.6333 69.2716 39.2467 69.2583 38.82C69.2516 38.72 69.2483 38.58 69.2483 38.4C69.2483 38.22 69.2516 38.08 69.2583 37.98C69.2716 37.5467 69.3616 37.16 69.5283 36.82C69.7016 36.4733 69.9483 36.2 70.2683 36C70.5949 35.8 70.9983 35.7 71.4783 35.7C71.9583 35.7 72.3583 35.8 72.6783 36C73.0049 36.2 73.2516 36.4733 73.4183 36.82C73.5916 37.16 73.6849 37.5467 73.6983 37.98C73.7049 38.08 73.7083 38.22 73.7083 38.4C73.7083 38.58 73.7049 38.72 73.6983 38.82C73.6849 39.2467 73.5916 39.6333 73.4183 39.98C73.2516 40.3267 73.0049 40.6 72.6783 40.8C72.3583 41 71.9583 41.1 71.4783 41.1ZM71.4783 40.52C71.9449 40.52 72.3249 40.37 72.6183 40.07C72.9116 39.77 73.0683 39.3367 73.0883 38.77C73.0949 38.67 73.0983 38.5467 73.0983 38.4C73.0983 38.2533 73.0949 38.13 73.0883 38.03C73.0683 37.4567 72.9116 37.0233 72.6183 36.73C72.3249 36.43 71.9449 36.28 71.4783 36.28C71.0116 36.28 70.6316 36.43 70.3383 36.73C70.0449 37.0233 69.8883 37.4567 69.8683 38.03C69.8616 38.13 69.8583 38.2533 69.8583 38.4C69.8583 38.5467 69.8616 38.67 69.8683 38.77C69.8883 39.3367 70.0449 39.77 70.3383 40.07C70.6316 40.37 71.0116 40.52 71.4783 40.52ZM78.2245 41.1C77.7711 41.1 77.3945 41.0033 77.0945 40.81C76.8011 40.61 76.5811 40.34 76.4345 40C76.2945 39.66 76.2245 39.28 76.2245 38.86V36.02C76.2245 35.9533 76.2445 35.9 76.2845 35.86C76.3245 35.82 76.3778 35.8 76.4445 35.8H76.6145C76.6811 35.8 76.7345 35.82 76.7745 35.86C76.8145 35.9 76.8345 35.9533 76.8345 36.02V38.81C76.8345 39.95 77.3311 40.52 78.3245 40.52C78.7978 40.52 79.1778 40.37 79.4645 40.07C79.7511 39.7633 79.8945 39.3433 79.8945 38.81V36.02C79.8945 35.9533 79.9145 35.9 79.9545 35.86C79.9945 35.82 80.0478 35.8 80.1145 35.8H80.2845C80.3511 35.8 80.4045 35.82 80.4445 35.86C80.4845 35.9 80.5045 35.9533 80.5045 36.02V40.78C80.5045 40.8467 80.4845 40.9 80.4445 40.94C80.4045 40.98 80.3511 41 80.2845 41H80.1145C80.0478 41 79.9945 40.98 79.9545 40.94C79.9145 40.9 79.8945 40.8467 79.8945 40.78V40.31C79.7145 40.5433 79.4978 40.7333 79.2445 40.88C78.9978 41.0267 78.6578 41.1 78.2245 41.1ZM83.1964 35.58C83.1431 35.58 83.1031 35.56 83.0764 35.52C83.0564 35.48 83.0497 35.43 83.0564 35.37L83.2464 34.17C83.2597 34.09 83.2831 34.0267 83.3164 33.98C83.3564 33.9267 83.4164 33.9 83.4964 33.9H83.9464C83.9931 33.9 84.0297 33.9167 84.0564 33.95C84.0831 33.9833 84.0964 34.02 84.0964 34.06C84.0964 34.12 84.0831 34.18 84.0564 34.24L83.6264 35.37C83.5997 35.4367 83.5664 35.49 83.5264 35.53C83.4931 35.5633 83.4397 35.58 83.3664 35.58H83.1964ZM86.6191 41C86.5524 41 86.4991 40.98 86.4591 40.94C86.4191 40.9 86.3991 40.8467 86.3991 40.78V36.03C86.3991 35.9633 86.4191 35.91 86.4591 35.87C86.4991 35.8233 86.5524 35.8 86.6191 35.8H86.7791C86.8457 35.8 86.8991 35.8233 86.9391 35.87C86.9857 35.91 87.0091 35.9633 87.0091 36.03V36.49C87.1291 36.2567 87.3024 36.0833 87.5291 35.97C87.7557 35.8567 88.0357 35.8 88.3691 35.8H88.7391C88.8057 35.8 88.8591 35.82 88.8991 35.86C88.9391 35.9 88.9591 35.9533 88.9591 36.02V36.16C88.9591 36.2267 88.9391 36.28 88.8991 36.32C88.8591 36.36 88.8057 36.38 88.7391 36.38H88.3091C87.9091 36.38 87.5924 36.4967 87.3591 36.73C87.1257 36.9633 87.0091 37.28 87.0091 37.68V40.78C87.0091 40.8467 86.9857 40.9 86.9391 40.94C86.8991 40.98 86.8457 41 86.7791 41H86.6191ZM95.7543 41C95.6743 41 95.611 40.9833 95.5643 40.95C95.5243 40.91 95.4943 40.8467 95.4743 40.76L94.1043 34.32C94.0976 34.2933 94.091 34.27 94.0843 34.25C94.0843 34.2233 94.0843 34.2067 94.0843 34.2C94.0843 34.1467 94.1043 34.1 94.1443 34.06C94.1843 34.02 94.231 34 94.2843 34H94.4943C94.621 34 94.6943 34.05 94.7143 34.15L95.8843 39.85L97.1243 35.78C97.1443 35.72 97.1776 35.6667 97.2243 35.62C97.2776 35.5733 97.3476 35.55 97.4343 35.55H97.6543C97.7476 35.55 97.8176 35.5733 97.8643 35.62C97.911 35.6667 97.9443 35.72 97.9643 35.78L99.2043 39.85L100.374 34.15C100.394 34.05 100.468 34 100.594 34H100.804C100.858 34 100.904 34.02 100.944 34.06C100.984 34.1 101.004 34.1467 101.004 34.2C101.004 34.2067 101.001 34.2233 100.994 34.25C100.994 34.27 100.991 34.2933 100.984 34.32L99.6143 40.76C99.5943 40.8467 99.561 40.91 99.5143 40.95C99.4743 40.9833 99.4143 41 99.3343 41H99.1843C99.1043 41 99.0376 40.98 98.9843 40.94C98.9376 40.9 98.901 40.84 98.8743 40.76L97.5443 36.54L96.2143 40.76C96.1876 40.84 96.1476 40.9 96.0943 40.94C96.0476 40.98 95.9843 41 95.9043 41H95.7543ZM103.715 41C103.648 41 103.595 40.98 103.555 40.94C103.515 40.9 103.495 40.8467 103.495 40.78V36.02C103.495 35.9533 103.515 35.9 103.555 35.86C103.595 35.82 103.648 35.8 103.715 35.8H103.885C103.952 35.8 104.005 35.82 104.045 35.86C104.085 35.9 104.105 35.9533 104.105 36.02V40.78C104.105 40.8467 104.085 40.9 104.045 40.94C104.005 40.98 103.952 41 103.885 41H103.715ZM103.605 34.73C103.538 34.73 103.485 34.71 103.445 34.67C103.405 34.63 103.385 34.5767 103.385 34.51V34.13C103.385 34.0633 103.405 34.01 103.445 33.97C103.485 33.9233 103.538 33.9 103.605 33.9H103.985C104.052 33.9 104.105 33.9233 104.145 33.97C104.192 34.01 104.215 34.0633 104.215 34.13V34.51C104.215 34.5767 104.192 34.63 104.145 34.67C104.105 34.71 104.052 34.73 103.985 34.73H103.605ZM108.572 41.1C108.225 41.1 107.925 41.0533 107.672 40.96C107.425 40.8667 107.222 40.7567 107.062 40.63C106.902 40.4967 106.782 40.3667 106.702 40.24C106.628 40.1133 106.588 40.0167 106.582 39.95C106.575 39.8767 106.598 39.8233 106.652 39.79C106.705 39.75 106.755 39.73 106.802 39.73H106.952C106.992 39.73 107.025 39.7367 107.052 39.75C107.085 39.7633 107.125 39.8 107.172 39.86C107.258 39.9733 107.358 40.0833 107.472 40.19C107.585 40.29 107.728 40.37 107.902 40.43C108.082 40.49 108.305 40.52 108.572 40.52C108.972 40.52 109.302 40.4433 109.562 40.29C109.822 40.1367 109.952 39.91 109.952 39.61C109.952 39.4233 109.898 39.2733 109.792 39.16C109.692 39.0467 109.518 38.9467 109.272 38.86C109.025 38.7733 108.692 38.6833 108.272 38.59C107.852 38.49 107.528 38.37 107.302 38.23C107.082 38.09 106.932 37.93 106.852 37.75C106.772 37.5633 106.732 37.3633 106.732 37.15C106.732 36.9167 106.798 36.69 106.932 36.47C107.065 36.2433 107.262 36.06 107.522 35.92C107.788 35.7733 108.122 35.7 108.522 35.7C108.848 35.7 109.125 35.7433 109.352 35.83C109.585 35.9167 109.775 36.0233 109.922 36.15C110.068 36.27 110.175 36.39 110.242 36.51C110.315 36.63 110.355 36.7267 110.362 36.8C110.368 36.8667 110.348 36.92 110.302 36.96C110.255 37 110.202 37.02 110.142 37.02H109.992C109.938 37.02 109.895 37.01 109.862 36.99C109.828 36.9633 109.798 36.93 109.772 36.89C109.705 36.7833 109.625 36.6833 109.532 36.59C109.438 36.4967 109.312 36.4233 109.152 36.37C108.998 36.31 108.788 36.28 108.522 36.28C108.122 36.28 107.825 36.3633 107.632 36.53C107.438 36.69 107.342 36.8967 107.342 37.15C107.342 37.2967 107.382 37.4267 107.462 37.54C107.542 37.6467 107.692 37.7467 107.912 37.84C108.132 37.9267 108.452 38.02 108.872 38.12C109.298 38.2133 109.635 38.33 109.882 38.47C110.128 38.6033 110.302 38.7633 110.402 38.95C110.508 39.1367 110.562 39.3567 110.562 39.61C110.562 39.8767 110.485 40.1233 110.332 40.35C110.185 40.5767 109.962 40.76 109.662 40.9C109.368 41.0333 109.005 41.1 108.572 41.1ZM114.974 41.1C114.327 41.1 113.814 40.89 113.434 40.47C113.054 40.0433 112.837 39.4867 112.784 38.8C112.777 38.7 112.774 38.5667 112.774 38.4C112.774 38.2333 112.777 38.1 112.784 38C112.817 37.5467 112.924 37.1467 113.104 36.8C113.284 36.4533 113.53 36.1833 113.844 35.99C114.164 35.7967 114.54 35.7 114.974 35.7C115.44 35.7 115.837 35.8033 116.164 36.01C116.49 36.2167 116.74 36.5133 116.914 36.9C117.094 37.2867 117.184 37.7467 117.184 38.28V38.43C117.184 38.4967 117.16 38.55 117.114 38.59C117.074 38.63 117.02 38.65 116.954 38.65H113.394C113.394 38.65 113.394 38.6633 113.394 38.69C113.394 38.7167 113.394 38.7367 113.394 38.75C113.407 39.05 113.477 39.3367 113.604 39.61C113.73 39.8767 113.91 40.0967 114.144 40.27C114.377 40.4367 114.654 40.52 114.974 40.52C115.26 40.52 115.497 40.4767 115.684 40.39C115.877 40.3033 116.03 40.21 116.144 40.11C116.257 40.0033 116.33 39.9233 116.364 39.87C116.424 39.7833 116.47 39.7333 116.504 39.72C116.537 39.7 116.59 39.69 116.664 39.69H116.824C116.884 39.69 116.934 39.71 116.974 39.75C117.02 39.7833 117.04 39.83 117.034 39.89C117.027 39.9833 116.974 40.1 116.874 40.24C116.78 40.3733 116.644 40.5067 116.464 40.64C116.29 40.7733 116.077 40.8833 115.824 40.97C115.57 41.0567 115.287 41.1 114.974 41.1ZM113.394 38.09H116.574V38.05C116.574 37.7167 116.51 37.4167 116.384 37.15C116.257 36.8833 116.074 36.6733 115.834 36.52C115.594 36.36 115.307 36.28 114.974 36.28C114.64 36.28 114.354 36.36 114.114 36.52C113.88 36.6733 113.7 36.8833 113.574 37.15C113.454 37.4167 113.394 37.7167 113.394 38.05V38.09ZM125.981 41.1C125.374 41.1 124.877 40.9833 124.491 40.75C124.111 40.51 123.827 40.1867 123.641 39.78C123.454 39.3733 123.351 38.91 123.331 38.39C123.324 38.1167 123.321 37.8233 123.321 37.51C123.321 37.1967 123.324 36.8967 123.331 36.61C123.351 36.09 123.454 35.6267 123.641 35.22C123.827 34.8067 124.111 34.4833 124.491 34.25C124.877 34.0167 125.374 33.9 125.981 33.9C126.454 33.9 126.857 33.9667 127.191 34.1C127.524 34.2333 127.794 34.41 128.001 34.63C128.214 34.8433 128.371 35.0767 128.471 35.33C128.577 35.5767 128.637 35.82 128.651 36.06C128.657 36.12 128.637 36.17 128.591 36.21C128.551 36.2433 128.501 36.26 128.441 36.26H128.241C128.187 36.26 128.141 36.2467 128.101 36.22C128.061 36.1867 128.034 36.13 128.021 36.05C127.894 35.4567 127.654 35.05 127.301 34.83C126.954 34.61 126.514 34.5 125.981 34.5C125.374 34.5 124.891 34.6733 124.531 35.02C124.177 35.36 123.987 35.9067 123.961 36.66C123.941 37.2067 123.941 37.7667 123.961 38.34C123.987 39.0933 124.177 39.6433 124.531 39.99C124.891 40.33 125.374 40.5 125.981 40.5C126.514 40.5 126.954 40.39 127.301 40.17C127.654 39.95 127.894 39.5433 128.021 38.95C128.034 38.87 128.061 38.8167 128.101 38.79C128.141 38.7567 128.187 38.74 128.241 38.74H128.441C128.501 38.74 128.551 38.76 128.591 38.8C128.637 38.8333 128.657 38.88 128.651 38.94C128.637 39.18 128.577 39.4267 128.471 39.68C128.371 39.9267 128.214 40.16 128.001 40.38C127.794 40.5933 127.524 40.7667 127.191 40.9C126.857 41.0333 126.454 41.1 125.981 41.1ZM133.174 41.1C132.694 41.1 132.291 41 131.964 40.8C131.644 40.6 131.398 40.3267 131.224 39.98C131.058 39.6333 130.968 39.2467 130.954 38.82C130.948 38.72 130.944 38.58 130.944 38.4C130.944 38.22 130.948 38.08 130.954 37.98C130.968 37.5467 131.058 37.16 131.224 36.82C131.398 36.4733 131.644 36.2 131.964 36C132.291 35.8 132.694 35.7 133.174 35.7C133.654 35.7 134.054 35.8 134.374 36C134.701 36.2 134.948 36.4733 135.114 36.82C135.288 37.16 135.381 37.5467 135.394 37.98C135.401 38.08 135.404 38.22 135.404 38.4C135.404 38.58 135.401 38.72 135.394 38.82C135.381 39.2467 135.288 39.6333 135.114 39.98C134.948 40.3267 134.701 40.6 134.374 40.8C134.054 41 133.654 41.1 133.174 41.1ZM133.174 40.52C133.641 40.52 134.021 40.37 134.314 40.07C134.608 39.77 134.764 39.3367 134.784 38.77C134.791 38.67 134.794 38.5467 134.794 38.4C134.794 38.2533 134.791 38.13 134.784 38.03C134.764 37.4567 134.608 37.0233 134.314 36.73C134.021 36.43 133.641 36.28 133.174 36.28C132.708 36.28 132.328 36.43 132.034 36.73C131.741 37.0233 131.584 37.4567 131.564 38.03C131.558 38.13 131.554 38.2533 131.554 38.4C131.554 38.5467 131.558 38.67 131.564 38.77C131.584 39.3367 131.741 39.77 132.034 40.07C132.328 40.37 132.708 40.52 133.174 40.52ZM138.191 41C138.124 41 138.071 40.98 138.031 40.94C137.991 40.9 137.971 40.8467 137.971 40.78V36.02C137.971 35.9533 137.991 35.9 138.031 35.86C138.071 35.82 138.124 35.8 138.191 35.8H138.361C138.427 35.8 138.481 35.82 138.521 35.86C138.561 35.9 138.581 35.9533 138.581 36.02V36.37C138.747 36.1567 138.944 35.9933 139.171 35.88C139.404 35.76 139.684 35.7 140.011 35.7C140.757 35.7 141.291 36.0133 141.611 36.64C141.764 36.3533 141.987 36.1267 142.281 35.96C142.581 35.7867 142.924 35.7 143.311 35.7C143.664 35.7 143.981 35.7833 144.261 35.95C144.547 36.11 144.771 36.35 144.931 36.67C145.097 36.99 145.181 37.39 145.181 37.87V40.78C145.181 40.8467 145.161 40.9 145.121 40.94C145.081 40.98 145.027 41 144.961 41H144.791C144.724 41 144.671 40.98 144.631 40.94C144.591 40.9 144.571 40.8467 144.571 40.78V37.97C144.571 37.53 144.507 37.19 144.381 36.95C144.254 36.7033 144.087 36.53 143.881 36.43C143.674 36.33 143.451 36.28 143.211 36.28C143.011 36.28 142.807 36.33 142.601 36.43C142.394 36.53 142.221 36.7033 142.081 36.95C141.947 37.19 141.881 37.53 141.881 37.97V40.78C141.881 40.8467 141.861 40.9 141.821 40.94C141.781 40.98 141.727 41 141.661 41H141.491C141.424 41 141.371 40.98 141.331 40.94C141.291 40.9 141.271 40.8467 141.271 40.78V37.97C141.271 37.53 141.204 37.19 141.071 36.95C140.937 36.7033 140.767 36.53 140.561 36.43C140.354 36.33 140.137 36.28 139.911 36.28C139.711 36.28 139.507 36.33 139.301 36.43C139.094 36.53 138.921 36.7033 138.781 36.95C138.647 37.19 138.581 37.5267 138.581 37.96V40.78C138.581 40.8467 138.561 40.9 138.521 40.94C138.481 40.98 138.427 41 138.361 41H138.191ZM148.18 42.9C148.113 42.9 148.06 42.88 148.02 42.84C147.98 42.8 147.96 42.7467 147.96 42.68V36.02C147.96 35.9533 147.98 35.9 148.02 35.86C148.06 35.82 148.113 35.8 148.18 35.8H148.35C148.417 35.8 148.47 35.82 148.51 35.86C148.55 35.9 148.57 35.9533 148.57 36.02V36.49C148.737 36.2633 148.953 36.0767 149.22 35.93C149.493 35.7767 149.837 35.7 150.25 35.7C150.643 35.7 150.973 35.77 151.24 35.91C151.507 36.0433 151.723 36.2233 151.89 36.45C152.057 36.6767 152.18 36.93 152.26 37.21C152.34 37.49 152.383 37.7767 152.39 38.07C152.397 38.17 152.4 38.28 152.4 38.4C152.4 38.52 152.397 38.63 152.39 38.73C152.383 39.0233 152.34 39.31 152.26 39.59C152.18 39.87 152.057 40.1233 151.89 40.35C151.723 40.5767 151.507 40.76 151.24 40.9C150.973 41.0333 150.643 41.1 150.25 41.1C149.837 41.1 149.493 41.0233 149.22 40.87C148.953 40.7167 148.737 40.53 148.57 40.31V42.68C148.57 42.7467 148.55 42.8 148.51 42.84C148.47 42.88 148.417 42.9 148.35 42.9H148.18ZM150.19 40.52C150.583 40.52 150.893 40.4333 151.12 40.26C151.347 40.0867 151.51 39.86 151.61 39.58C151.71 39.3 151.767 39 151.78 38.68C151.787 38.4933 151.787 38.3067 151.78 38.12C151.767 37.8 151.71 37.5 151.61 37.22C151.51 36.94 151.347 36.7133 151.12 36.54C150.893 36.3667 150.583 36.28 150.19 36.28C149.81 36.28 149.503 36.37 149.27 36.55C149.037 36.73 148.863 36.9567 148.75 37.23C148.643 37.4967 148.583 37.7667 148.57 38.04C148.563 38.14 148.56 38.27 148.56 38.43C148.56 38.59 148.563 38.72 148.57 38.82C148.577 39.0867 148.637 39.35 148.75 39.61C148.87 39.87 149.047 40.0867 149.28 40.26C149.52 40.4333 149.823 40.52 150.19 40.52ZM156.36 41.1C156.04 41.1 155.744 41.0333 155.47 40.9C155.204 40.7667 154.987 40.59 154.82 40.37C154.654 40.1433 154.57 39.89 154.57 39.61C154.57 39.1567 154.754 38.7933 155.12 38.52C155.487 38.2467 155.964 38.07 156.55 37.99L158.13 37.77V37.42C158.13 37.0667 158.02 36.79 157.8 36.59C157.587 36.3833 157.244 36.28 156.77 36.28C156.424 36.28 156.144 36.35 155.93 36.49C155.717 36.6233 155.57 36.8 155.49 37.02C155.457 37.12 155.394 37.17 155.3 37.17H155.14C155.06 37.17 155.004 37.15 154.97 37.11C154.937 37.0633 154.92 37.01 154.92 36.95C154.92 36.8567 154.954 36.74 155.02 36.6C155.094 36.46 155.204 36.3233 155.35 36.19C155.497 36.05 155.687 35.9333 155.92 35.84C156.154 35.7467 156.437 35.7 156.77 35.7C157.164 35.7 157.487 35.7533 157.74 35.86C158 35.9667 158.2 36.1067 158.34 36.28C158.487 36.4467 158.59 36.6333 158.65 36.84C158.71 37.0467 158.74 37.25 158.74 37.45V40.78C158.74 40.8467 158.72 40.9 158.68 40.94C158.64 40.98 158.587 41 158.52 41H158.35C158.284 41 158.23 40.98 158.19 40.94C158.15 40.9 158.13 40.8467 158.13 40.78V40.31C158.05 40.43 157.937 40.55 157.79 40.67C157.644 40.79 157.454 40.8933 157.22 40.98C156.994 41.06 156.707 41.1 156.36 41.1ZM156.46 40.52C156.767 40.52 157.047 40.4533 157.3 40.32C157.554 40.1867 157.754 39.9833 157.9 39.71C158.054 39.43 158.13 39.08 158.13 38.66V38.32L156.84 38.5C156.294 38.5733 155.88 38.7 155.6 38.88C155.32 39.06 155.18 39.2867 155.18 39.56C155.18 39.78 155.244 39.96 155.37 40.1C155.497 40.24 155.657 40.3467 155.85 40.42C156.05 40.4867 156.254 40.52 156.46 40.52ZM161.742 41C161.675 41 161.622 40.98 161.582 40.94C161.542 40.9 161.522 40.8467 161.522 40.78V36.02C161.522 35.9533 161.542 35.9 161.582 35.86C161.622 35.82 161.675 35.8 161.742 35.8H161.912C161.978 35.8 162.032 35.82 162.072 35.86C162.112 35.9 162.132 35.9533 162.132 36.02V36.49C162.312 36.2567 162.528 36.0667 162.782 35.92C163.042 35.7733 163.385 35.7 163.812 35.7C164.265 35.7 164.642 35.8 164.942 36C165.248 36.1933 165.475 36.46 165.622 36.8C165.775 37.1333 165.852 37.5133 165.852 37.94V40.78C165.852 40.8467 165.832 40.9 165.792 40.94C165.752 40.98 165.698 41 165.632 41H165.462C165.395 41 165.342 40.98 165.302 40.94C165.262 40.9 165.242 40.8467 165.242 40.78V37.99C165.242 37.4567 165.112 37.04 164.852 36.74C164.592 36.4333 164.212 36.28 163.712 36.28C163.238 36.28 162.855 36.4333 162.562 36.74C162.275 37.04 162.132 37.4567 162.132 37.99V40.78C162.132 40.8467 162.112 40.9 162.072 40.94C162.032 40.98 161.978 41 161.912 41H161.742ZM168.84 41C168.773 41 168.72 40.98 168.68 40.94C168.64 40.9 168.62 40.8467 168.62 40.78V36.02C168.62 35.9533 168.64 35.9 168.68 35.86C168.72 35.82 168.773 35.8 168.84 35.8H169.01C169.077 35.8 169.13 35.82 169.17 35.86C169.21 35.9 169.23 35.9533 169.23 36.02V40.78C169.23 40.8467 169.21 40.9 169.17 40.94C169.13 40.98 169.077 41 169.01 41H168.84ZM168.73 34.73C168.663 34.73 168.61 34.71 168.57 34.67C168.53 34.63 168.51 34.5767 168.51 34.51V34.13C168.51 34.0633 168.53 34.01 168.57 33.97C168.61 33.9233 168.663 33.9 168.73 33.9H169.11C169.177 33.9 169.23 33.9233 169.27 33.97C169.317 34.01 169.34 34.0633 169.34 34.13V34.51C169.34 34.5767 169.317 34.63 169.27 34.67C169.23 34.71 169.177 34.73 169.11 34.73H168.73ZM174.027 41.1C173.547 41.1 173.143 41 172.817 40.8C172.497 40.6 172.25 40.3267 172.077 39.98C171.91 39.6333 171.82 39.2467 171.807 38.82C171.8 38.72 171.797 38.58 171.797 38.4C171.797 38.22 171.8 38.08 171.807 37.98C171.82 37.5467 171.91 37.16 172.077 36.82C172.25 36.4733 172.497 36.2 172.817 36C173.143 35.8 173.547 35.7 174.027 35.7C174.507 35.7 174.907 35.8 175.227 36C175.553 36.2 175.8 36.4733 175.967 36.82C176.14 37.16 176.233 37.5467 176.247 37.98C176.253 38.08 176.257 38.22 176.257 38.4C176.257 38.58 176.253 38.72 176.247 38.82C176.233 39.2467 176.14 39.6333 175.967 39.98C175.8 40.3267 175.553 40.6 175.227 40.8C174.907 41 174.507 41.1 174.027 41.1ZM174.027 40.52C174.493 40.52 174.873 40.37 175.167 40.07C175.46 39.77 175.617 39.3367 175.637 38.77C175.643 38.67 175.647 38.5467 175.647 38.4C175.647 38.2533 175.643 38.13 175.637 38.03C175.617 37.4567 175.46 37.0233 175.167 36.73C174.873 36.43 174.493 36.28 174.027 36.28C173.56 36.28 173.18 36.43 172.887 36.73C172.593 37.0233 172.437 37.4567 172.417 38.03C172.41 38.13 172.407 38.2533 172.407 38.4C172.407 38.5467 172.41 38.67 172.417 38.77C172.437 39.3367 172.593 39.77 172.887 40.07C173.18 40.37 173.56 40.52 174.027 40.52ZM179.043 41C178.976 41 178.923 40.98 178.883 40.94C178.843 40.9 178.823 40.8467 178.823 40.78V36.02C178.823 35.9533 178.843 35.9 178.883 35.86C178.923 35.82 178.976 35.8 179.043 35.8H179.213C179.28 35.8 179.333 35.82 179.373 35.86C179.413 35.9 179.433 35.9533 179.433 36.02V36.49C179.613 36.2567 179.83 36.0667 180.083 35.92C180.343 35.7733 180.686 35.7 181.113 35.7C181.566 35.7 181.943 35.8 182.243 36C182.55 36.1933 182.776 36.46 182.923 36.8C183.076 37.1333 183.153 37.5133 183.153 37.94V40.78C183.153 40.8467 183.133 40.9 183.093 40.94C183.053 40.98 183 41 182.933 41H182.763C182.696 41 182.643 40.98 182.603 40.94C182.563 40.9 182.543 40.8467 182.543 40.78V37.99C182.543 37.4567 182.413 37.04 182.153 36.74C181.893 36.4333 181.513 36.28 181.013 36.28C180.54 36.28 180.156 36.4333 179.863 36.74C179.576 37.04 179.433 37.4567 179.433 37.99V40.78C179.433 40.8467 179.413 40.9 179.373 40.94C179.333 40.98 179.28 41 179.213 41H179.043Z" fill="#1F1B2D"/>
<path d="M69.176 21.23C67.842 21.23 66.7227 21.0307 65.818 20.632C64.9133 20.218 64.2157 19.689 63.725 19.045C63.2497 18.3857 62.9967 17.688 62.966 16.952C62.966 16.8293 63.012 16.722 63.104 16.63C63.2113 16.5227 63.334 16.469 63.472 16.469H64.645C64.829 16.469 64.967 16.515 65.059 16.607C65.151 16.699 65.2123 16.8063 65.243 16.929C65.3197 17.297 65.5037 17.665 65.795 18.033C66.1017 18.3857 66.5233 18.6847 67.06 18.93C67.612 19.16 68.3173 19.275 69.176 19.275C70.4947 19.275 71.4607 19.045 72.074 18.585C72.7027 18.1097 73.017 17.481 73.017 16.699C73.017 16.1623 72.8483 15.733 72.511 15.411C72.189 15.0737 71.6907 14.7747 71.016 14.514C70.3413 14.2533 69.4673 13.9697 68.394 13.663C67.2747 13.341 66.347 12.9883 65.611 12.605C64.875 12.2217 64.323 11.7463 63.955 11.179C63.6023 10.6117 63.426 9.891 63.426 9.017C63.426 8.189 63.6483 7.453 64.093 6.809C64.5377 6.14967 65.174 5.62833 66.002 5.245C66.8453 4.86167 67.865 4.67 69.061 4.67C70.0117 4.67 70.8397 4.80033 71.545 5.061C72.2657 5.30633 72.8637 5.64367 73.339 6.073C73.8143 6.487 74.1747 6.93933 74.42 7.43C74.6653 7.90533 74.7957 8.373 74.811 8.833C74.811 8.94033 74.7727 9.04767 74.696 9.155C74.6193 9.247 74.4967 9.293 74.328 9.293H73.109C73.0017 9.293 72.8867 9.26233 72.764 9.201C72.6567 9.13967 72.5723 9.02467 72.511 8.856C72.419 8.22733 72.0663 7.69833 71.453 7.269C70.8397 6.83967 70.0423 6.625 69.061 6.625C68.0643 6.625 67.2517 6.81667 66.623 7.2C66.0097 7.58333 65.703 8.18133 65.703 8.994C65.703 9.51533 65.8487 9.95233 66.14 10.305C66.4313 10.6423 66.8913 10.9413 67.52 11.202C68.1487 11.4627 68.969 11.7387 69.981 12.03C71.2077 12.3673 72.212 12.7277 72.994 13.111C73.776 13.479 74.351 13.9467 74.719 14.514C75.1023 15.066 75.294 15.779 75.294 16.653C75.294 17.619 75.041 18.447 74.535 19.137C74.029 19.8117 73.316 20.333 72.396 20.701C71.4913 21.0537 70.418 21.23 69.176 21.23ZM81.3446 21.23C80.578 21.23 79.8803 21.0767 79.2516 20.77C78.623 20.4633 78.117 20.0493 77.7336 19.528C77.3503 19.0067 77.1586 18.4163 77.1586 17.757C77.1586 16.699 77.588 15.8557 78.4466 15.227C79.3053 14.5983 80.4246 14.1843 81.8046 13.985L85.2316 13.502V12.835C85.2316 12.099 85.017 11.524 84.5876 11.11C84.1736 10.696 83.4913 10.489 82.5406 10.489C81.8506 10.489 81.291 10.627 80.8616 10.903C80.4476 11.179 80.1563 11.5317 79.9876 11.961C79.8956 12.191 79.7346 12.306 79.5046 12.306H78.4696C78.301 12.306 78.1706 12.26 78.0786 12.168C78.002 12.0607 77.9636 11.938 77.9636 11.8C77.9636 11.57 78.048 11.2863 78.2166 10.949C78.4006 10.6117 78.6766 10.282 79.0446 9.96C79.4126 9.638 79.8803 9.36967 80.4476 9.155C81.0303 8.925 81.7356 8.81 82.5636 8.81C83.4836 8.81 84.258 8.93267 84.8866 9.178C85.5153 9.408 86.006 9.72233 86.3586 10.121C86.7266 10.5197 86.9873 10.972 87.1406 11.478C87.3093 11.984 87.3936 12.4977 87.3936 13.019V20.471C87.3936 20.6243 87.34 20.7547 87.2326 20.862C87.1406 20.954 87.018 21 86.8646 21H85.8066C85.638 21 85.5076 20.954 85.4156 20.862C85.3236 20.7547 85.2776 20.6243 85.2776 20.471V19.482C85.0783 19.758 84.81 20.034 84.4726 20.31C84.1353 20.5707 83.7136 20.793 83.2076 20.977C82.7016 21.1457 82.0806 21.23 81.3446 21.23ZM81.8276 19.505C82.4563 19.505 83.0313 19.3747 83.5526 19.114C84.074 18.838 84.4803 18.4163 84.7716 17.849C85.0783 17.2817 85.2316 16.5687 85.2316 15.71V15.066L82.5636 15.457C81.475 15.6103 80.6546 15.871 80.1026 16.239C79.5506 16.5917 79.2746 17.044 79.2746 17.596C79.2746 18.0253 79.3973 18.3857 79.6426 18.677C79.9033 18.953 80.2253 19.16 80.6086 19.298C81.0073 19.436 81.4136 19.505 81.8276 19.505ZM95.599 26.06C94.5564 26.06 93.6977 25.922 93.023 25.646C92.3637 25.37 91.8424 25.0327 91.459 24.634C91.091 24.2507 90.8227 23.8597 90.654 23.461C90.5007 23.0777 90.4164 22.771 90.401 22.541C90.3857 22.3877 90.4317 22.2573 90.539 22.15C90.6617 22.0427 90.792 21.989 90.93 21.989H92.034C92.172 21.989 92.287 22.0197 92.379 22.081C92.471 22.1423 92.5477 22.2727 92.609 22.472C92.701 22.702 92.839 22.955 93.023 23.231C93.207 23.5223 93.4907 23.7677 93.874 23.967C94.2574 24.1817 94.794 24.289 95.484 24.289C96.2047 24.289 96.8104 24.1893 97.301 23.99C97.7917 23.806 98.1597 23.4687 98.405 22.978C98.6657 22.5027 98.796 21.8433 98.796 21V19.436C98.428 19.9113 97.945 20.31 97.347 20.632C96.749 20.9387 95.9977 21.092 95.093 21.092C94.2344 21.092 93.4984 20.9463 92.885 20.655C92.2717 20.3483 91.7657 19.942 91.367 19.436C90.9837 18.9147 90.6924 18.3243 90.493 17.665C90.309 17.0057 90.2017 16.3157 90.171 15.595C90.1557 15.1657 90.1557 14.744 90.171 14.33C90.2017 13.6093 90.309 12.9193 90.493 12.26C90.6924 11.6007 90.9837 11.0103 91.367 10.489C91.7657 9.96767 92.2717 9.56133 92.885 9.27C93.4984 8.96333 94.2344 8.81 95.093 8.81C96.013 8.81 96.772 8.98633 97.37 9.339C97.9834 9.67633 98.4817 10.0903 98.865 10.581V9.592C98.865 9.43867 98.911 9.30833 99.003 9.201C99.1104 9.09367 99.2407 9.04 99.394 9.04H100.452C100.605 9.04 100.736 9.09367 100.843 9.201C100.95 9.30833 101.004 9.43867 101.004 9.592V20.747C101.004 21.7743 100.828 22.6867 100.475 23.484C100.138 24.2813 99.5704 24.91 98.773 25.37C97.991 25.83 96.933 26.06 95.599 26.06ZM95.553 19.252C96.3197 19.252 96.933 19.0757 97.393 18.723C97.8684 18.3703 98.2134 17.9257 98.428 17.389C98.658 16.8523 98.7807 16.308 98.796 15.756C98.8114 15.5413 98.819 15.2807 98.819 14.974C98.819 14.652 98.8114 14.3837 98.796 14.169C98.7807 13.617 98.658 13.0727 98.428 12.536C98.2134 11.9993 97.8684 11.5547 97.393 11.202C96.933 10.8493 96.3197 10.673 95.553 10.673C94.7864 10.673 94.173 10.8493 93.713 11.202C93.253 11.5393 92.9234 11.9917 92.724 12.559C92.5247 13.111 92.4097 13.709 92.379 14.353C92.3637 14.7517 92.3637 15.158 92.379 15.572C92.4097 16.216 92.5247 16.8217 92.724 17.389C92.9234 17.941 93.253 18.3933 93.713 18.746C94.173 19.0833 94.7864 19.252 95.553 19.252ZM109.185 21.23C107.605 21.23 106.348 20.747 105.413 19.781C104.477 18.7997 103.964 17.4657 103.872 15.779C103.856 15.5797 103.849 15.3267 103.849 15.02C103.849 14.698 103.856 14.4373 103.872 14.238C103.933 13.1493 104.186 12.1987 104.631 11.386C105.075 10.558 105.681 9.92167 106.448 9.477C107.23 9.03233 108.142 8.81 109.185 8.81C110.35 8.81 111.324 9.05533 112.106 9.546C112.903 10.0367 113.509 10.7343 113.923 11.639C114.337 12.5437 114.544 13.6017 114.544 14.813V15.204C114.544 15.3727 114.49 15.503 114.383 15.595C114.291 15.687 114.168 15.733 114.015 15.733H106.057C106.057 15.7483 106.057 15.779 106.057 15.825C106.057 15.871 106.057 15.9093 106.057 15.94C106.087 16.5687 106.225 17.159 106.471 17.711C106.716 18.2477 107.069 18.6847 107.529 19.022C107.989 19.3593 108.541 19.528 109.185 19.528C109.737 19.528 110.197 19.4437 110.565 19.275C110.933 19.1063 111.232 18.9223 111.462 18.723C111.692 18.5083 111.845 18.3473 111.922 18.24C112.06 18.0407 112.167 17.9257 112.244 17.895C112.32 17.849 112.443 17.826 112.612 17.826H113.716C113.869 17.826 113.992 17.872 114.084 17.964C114.191 18.0407 114.237 18.1557 114.222 18.309C114.206 18.539 114.084 18.8227 113.854 19.16C113.624 19.482 113.294 19.804 112.865 20.126C112.435 20.448 111.914 20.7163 111.301 20.931C110.687 21.1303 109.982 21.23 109.185 21.23ZM106.057 14.146H112.359V14.077C112.359 13.387 112.228 12.7737 111.968 12.237C111.722 11.7003 111.362 11.2787 110.887 10.972C110.411 10.65 109.844 10.489 109.185 10.489C108.525 10.489 107.958 10.65 107.483 10.972C107.023 11.2787 106.67 11.7003 106.425 12.237C106.179 12.7737 106.057 13.387 106.057 14.077V14.146ZM118.122 21C117.953 21 117.823 20.954 117.731 20.862C117.639 20.7547 117.593 20.6243 117.593 20.471V5.452C117.593 5.28333 117.639 5.153 117.731 5.061C117.823 4.95367 117.953 4.9 118.122 4.9H124.424C125.574 4.9 126.509 5.09167 127.23 5.475C127.966 5.843 128.502 6.349 128.84 6.993C129.192 7.637 129.369 8.35767 129.369 9.155C129.369 9.78367 129.261 10.328 129.047 10.788C128.847 11.2327 128.594 11.6007 128.288 11.892C127.981 12.168 127.682 12.3827 127.391 12.536C127.989 12.8273 128.518 13.3027 128.978 13.962C129.453 14.6213 129.691 15.4187 129.691 16.354C129.691 17.1973 129.499 17.9717 129.116 18.677C128.732 19.3823 128.157 19.9497 127.391 20.379C126.639 20.793 125.704 21 124.585 21H118.122ZM119.847 19.137H124.286C125.282 19.137 126.049 18.8687 126.586 18.332C127.122 17.7953 127.391 17.136 127.391 16.354C127.391 15.5413 127.122 14.8743 126.586 14.353C126.049 13.8163 125.282 13.548 124.286 13.548H119.847V19.137ZM119.847 11.708H124.079C125.06 11.708 125.804 11.4857 126.31 11.041C126.816 10.581 127.069 9.96 127.069 9.178C127.069 8.396 126.816 7.798 126.31 7.384C125.804 6.97 125.06 6.763 124.079 6.763H119.847V11.708ZM137.119 21.23C136.138 21.23 135.302 21.0153 134.612 20.586C133.937 20.1413 133.424 19.528 133.071 18.746C132.718 17.964 132.542 17.067 132.542 16.055V9.569C132.542 9.41567 132.588 9.293 132.68 9.201C132.787 9.09367 132.918 9.04 133.071 9.04H134.221C134.374 9.04 134.497 9.09367 134.589 9.201C134.696 9.293 134.75 9.41567 134.75 9.569V15.94C134.75 18.2247 135.747 19.367 137.74 19.367C138.691 19.367 139.45 19.068 140.017 18.47C140.6 17.8567 140.891 17.0133 140.891 15.94V9.569C140.891 9.41567 140.937 9.293 141.029 9.201C141.136 9.09367 141.267 9.04 141.42 9.04H142.547C142.716 9.04 142.846 9.09367 142.938 9.201C143.03 9.293 143.076 9.41567 143.076 9.569V20.471C143.076 20.6243 143.03 20.7547 142.938 20.862C142.846 20.954 142.716 21 142.547 21H141.489C141.336 21 141.205 20.954 141.098 20.862C141.006 20.7547 140.96 20.6243 140.96 20.471V19.459C140.546 19.9957 140.04 20.425 139.442 20.747C138.859 21.069 138.085 21.23 137.119 21.23ZM150.863 21.23C150.02 21.23 149.291 21.0843 148.678 20.793C148.065 20.4863 147.559 20.08 147.16 19.574C146.777 19.0527 146.485 18.4623 146.286 17.803C146.102 17.1437 145.995 16.446 145.964 15.71C145.949 15.4647 145.941 15.2347 145.941 15.02C145.941 14.8053 145.949 14.5753 145.964 14.33C145.995 13.6093 146.102 12.9193 146.286 12.26C146.485 11.6007 146.777 11.0103 147.16 10.489C147.559 9.96767 148.065 9.56133 148.678 9.27C149.291 8.96333 150.02 8.81 150.863 8.81C151.768 8.81 152.519 8.971 153.117 9.293C153.715 9.615 154.206 10.0137 154.589 10.489V5.199C154.589 5.04567 154.635 4.923 154.727 4.831C154.834 4.72367 154.965 4.67 155.118 4.67H156.222C156.375 4.67 156.498 4.72367 156.59 4.831C156.697 4.923 156.751 5.04567 156.751 5.199V20.471C156.751 20.6243 156.697 20.7547 156.59 20.862C156.498 20.954 156.375 21 156.222 21H155.187C155.018 21 154.888 20.954 154.796 20.862C154.704 20.7547 154.658 20.6243 154.658 20.471V19.505C154.275 19.9957 153.776 20.4097 153.163 20.747C152.55 21.069 151.783 21.23 150.863 21.23ZM151.346 19.367C152.113 19.367 152.726 19.1907 153.186 18.838C153.646 18.4853 153.991 18.0407 154.221 17.504C154.451 16.952 154.574 16.3923 154.589 15.825C154.604 15.5797 154.612 15.2883 154.612 14.951C154.612 14.5983 154.604 14.2993 154.589 14.054C154.574 13.5173 154.443 12.9883 154.198 12.467C153.968 11.9457 153.615 11.5163 153.14 11.179C152.68 10.8417 152.082 10.673 151.346 10.673C150.564 10.673 149.943 10.8493 149.483 11.202C149.023 11.5393 148.693 11.9917 148.494 12.559C148.295 13.111 148.18 13.709 148.149 14.353C148.134 14.7977 148.134 15.2423 148.149 15.687C148.18 16.331 148.295 16.9367 148.494 17.504C148.693 18.056 149.023 18.5083 149.483 18.861C149.943 19.1983 150.564 19.367 151.346 19.367ZM164.542 21.23C163.698 21.23 162.97 21.0843 162.357 20.793C161.743 20.4863 161.237 20.08 160.839 19.574C160.455 19.0527 160.164 18.4623 159.965 17.803C159.781 17.1437 159.673 16.446 159.643 15.71C159.627 15.4647 159.62 15.2347 159.62 15.02C159.62 14.8053 159.627 14.5753 159.643 14.33C159.673 13.6093 159.781 12.9193 159.965 12.26C160.164 11.6007 160.455 11.0103 160.839 10.489C161.237 9.96767 161.743 9.56133 162.357 9.27C162.97 8.96333 163.698 8.81 164.542 8.81C165.446 8.81 166.198 8.971 166.796 9.293C167.394 9.615 167.884 10.0137 168.268 10.489V5.199C168.268 5.04567 168.314 4.923 168.406 4.831C168.513 4.72367 168.643 4.67 168.797 4.67H169.901C170.054 4.67 170.177 4.72367 170.269 4.831C170.376 4.923 170.43 5.04567 170.43 5.199V20.471C170.43 20.6243 170.376 20.7547 170.269 20.862C170.177 20.954 170.054 21 169.901 21H168.866C168.697 21 168.567 20.954 168.475 20.862C168.383 20.7547 168.337 20.6243 168.337 20.471V19.505C167.953 19.9957 167.455 20.4097 166.842 20.747C166.228 21.069 165.462 21.23 164.542 21.23ZM165.025 19.367C165.791 19.367 166.405 19.1907 166.865 18.838C167.325 18.4853 167.67 18.0407 167.9 17.504C168.13 16.952 168.252 16.3923 168.268 15.825C168.283 15.5797 168.291 15.2883 168.291 14.951C168.291 14.5983 168.283 14.2993 168.268 14.054C168.252 13.5173 168.122 12.9883 167.877 12.467C167.647 11.9457 167.294 11.5163 166.819 11.179C166.359 10.8417 165.761 10.673 165.025 10.673C164.243 10.673 163.622 10.8493 163.162 11.202C162.702 11.5393 162.372 11.9917 162.173 12.559C161.973 13.111 161.858 13.709 161.828 14.353C161.812 14.7977 161.812 15.2423 161.828 15.687C161.858 16.331 161.973 16.9367 162.173 17.504C162.372 18.056 162.702 18.5083 163.162 18.861C163.622 19.1983 164.243 19.367 165.025 19.367ZM175.943 25.37C175.821 25.37 175.713 25.324 175.621 25.232C175.529 25.14 175.483 25.0327 175.483 24.91C175.483 24.8487 175.491 24.7873 175.506 24.726C175.522 24.6647 175.552 24.588 175.598 24.496L177.369 20.287L172.976 9.914C172.9 9.73 172.861 9.59967 172.861 9.523C172.861 9.385 172.907 9.27 172.999 9.178C173.091 9.086 173.206 9.04 173.344 9.04H174.471C174.625 9.04 174.747 9.07833 174.839 9.155C174.931 9.23167 174.993 9.32367 175.023 9.431L178.519 17.803L182.107 9.431C182.153 9.32367 182.215 9.23167 182.291 9.155C182.383 9.07833 182.514 9.04 182.682 9.04H183.763C183.901 9.04 184.016 9.086 184.108 9.178C184.2 9.27 184.246 9.37733 184.246 9.5C184.246 9.57667 184.208 9.71467 184.131 9.914L177.599 24.979C177.553 25.0863 177.484 25.1783 177.392 25.255C177.316 25.3317 177.193 25.37 177.024 25.37H175.943Z" fill="#04AA77"/>
</svg>
